<svg width="20" height="20" viewBox="0 0 20 20" fill="none" xmlns="http://www.w3.org/2000/svg"><g clip-path="url(#clip0_2624_13648)"><path d="M17.218 1.374a2.582 2.582 0 00-3.648 0l-.914.918-9.721 9.717-.021.02c-.005.006-.005.011-.01.011-.01.016-.026.03-.036.046 0 .005-.006.005-.006.01-.01.016-.015.027-.026.042-.005.005-.005.01-.01.015l-.015.042c0 .005-.005.005-.005.01L.649 18.691a.508.508 0 00.123.527.52.52 0 00.532.124l6.481-2.162c.005 0 .005 0 .01-.006a.187.187 0 00.047-.02.017.017 0 00.01-.005l.052-.032c.015-.01.03-.025.046-.036.005-.005.01-.005.01-.01.006-.005.016-.01.021-.02L18.616 6.415a2.582 2.582 0 000-3.648l-1.398-1.393zM7.62 15.967l-3.59-3.592 8.989-8.989 3.591 3.592-8.989 8.989zM3.523 13.33l3.137 3.138-4.711 1.568 1.574-4.706zm14.366-7.637l-.547.552-3.592-3.592.553-.552a1.548 1.548 0 012.188 0l1.403 1.404c.6.607.597 1.584-.005 2.188z" fill="#000"/></g><defs><clipPath id="clip0_2624_13648"><path fill="#fff" d="M0 0h20v20H0z"/></clipPath></defs></svg>